<mxfile host="65bd71144e" pages="1">
    <diagram id="8m5tW45DkZxrXLQLYPcF" name="Page-1">
        <mxGraphModel dx="5249" dy="2711" grid="0" gridSize="10" guides="1" tooltips="1" connect="1" arrows="1" fold="1" page="0" pageScale="1" pageWidth="850" pageHeight="1100" background="none" math="0" shadow="0">
            <root>
                <mxCell id="0"/>
                <mxCell id="1" parent="0"/>
                <mxCell id="33" value="&amp;lt;&amp;lt;View&amp;gt;&amp;gt;&lt;br&gt;Login" style="shape=umlLifeline;perimeter=lifelinePerimeter;whiteSpace=wrap;html=1;container=1;collapsible=0;recursiveResize=0;outlineConnect=0;" parent="1" vertex="1">
                    <mxGeometry x="284" y="234" width="100" height="640" as="geometry"/>
                </mxCell>
                <mxCell id="47" value="Successfully signed-in" style="html=1;verticalAlign=bottom;endArrow=open;dashed=1;endSize=8;" parent="33" edge="1">
                    <mxGeometry relative="1" as="geometry">
                        <mxPoint x="50.32999999999993" y="390" as="sourcePoint"/>
                        <mxPoint x="-130.00333333333344" y="390" as="targetPoint"/>
                    </mxGeometry>
                </mxCell>
                <mxCell id="34" value="&amp;lt;&amp;lt;Controller&amp;gt;&amp;gt;&lt;br&gt;Service" style="shape=umlLifeline;perimeter=lifelinePerimeter;whiteSpace=wrap;html=1;container=1;collapsible=0;recursiveResize=0;outlineConnect=0;" parent="1" vertex="1">
                    <mxGeometry x="464" y="234" width="100" height="640" as="geometry"/>
                </mxCell>
                <mxCell id="35" value="&amp;lt;&amp;lt;Model&amp;gt;&amp;gt;&lt;br&gt;Users" style="shape=umlLifeline;perimeter=lifelinePerimeter;whiteSpace=wrap;html=1;container=1;collapsible=0;recursiveResize=0;outlineConnect=0;" parent="1" vertex="1">
                    <mxGeometry x="644" y="234" width="100" height="640" as="geometry"/>
                </mxCell>
                <mxCell id="42" value="return user data&amp;nbsp;" style="html=1;verticalAlign=bottom;endArrow=open;dashed=1;endSize=8;" parent="35" target="34" edge="1">
                    <mxGeometry relative="1" as="geometry">
                        <mxPoint x="50" y="270" as="sourcePoint"/>
                        <mxPoint x="-30" y="270" as="targetPoint"/>
                    </mxGeometry>
                </mxCell>
                <mxCell id="36" value="User" style="shape=umlLifeline;perimeter=lifelinePerimeter;whiteSpace=wrap;html=1;container=1;collapsible=0;recursiveResize=0;outlineConnect=0;" parent="1" vertex="1">
                    <mxGeometry x="104" y="234" width="100" height="640" as="geometry"/>
                </mxCell>
                <mxCell id="38" value="Input email and password" style="html=1;verticalAlign=bottom;endArrow=block;" parent="36" target="33" edge="1">
                    <mxGeometry width="80" relative="1" as="geometry">
                        <mxPoint x="50" y="80" as="sourcePoint"/>
                        <mxPoint x="220" y="80" as="targetPoint"/>
                    </mxGeometry>
                </mxCell>
                <mxCell id="37" value="" style="shape=umlActor;verticalLabelPosition=bottom;verticalAlign=top;html=1;outlineConnect=0;" parent="1" vertex="1">
                    <mxGeometry x="138" y="160" width="30" height="60" as="geometry"/>
                </mxCell>
                <mxCell id="39" value="signIn(email, password)" style="html=1;verticalAlign=bottom;endArrow=block;" parent="1" edge="1">
                    <mxGeometry width="80" relative="1" as="geometry">
                        <mxPoint x="333.63043478260886" y="378" as="sourcePoint"/>
                        <mxPoint x="513.5" y="378" as="targetPoint"/>
                    </mxGeometry>
                </mxCell>
                <mxCell id="40" value="signInWithEmailAndPassword&lt;br&gt;(email, password)" style="html=1;verticalAlign=bottom;endArrow=block;" parent="1" source="34" edge="1">
                    <mxGeometry width="80" relative="1" as="geometry">
                        <mxPoint x="513.9992592592592" y="434" as="sourcePoint"/>
                        <mxPoint x="693.74" y="434" as="targetPoint"/>
                    </mxGeometry>
                </mxCell>
                <mxCell id="46" value="set signed-in user with&lt;br&gt;Firebase Auth" style="html=1;verticalAlign=bottom;endArrow=open;dashed=1;endSize=8;" parent="1" edge="1">
                    <mxGeometry relative="1" as="geometry">
                        <mxPoint x="514.33" y="554" as="sourcePoint"/>
                        <mxPoint x="333.99666666666656" y="554" as="targetPoint"/>
                    </mxGeometry>
                </mxCell>
                <mxCell id="48" value="return exception user&lt;br&gt;does not exist" style="html=1;verticalAlign=bottom;endArrow=open;dashed=1;endSize=8;" parent="1" edge="1">
                    <mxGeometry relative="1" as="geometry">
                        <mxPoint x="694" y="704" as="sourcePoint"/>
                        <mxPoint x="513.6666666666665" y="704" as="targetPoint"/>
                    </mxGeometry>
                </mxCell>
                <mxCell id="49" value="Return exception user&lt;br&gt;does not exist" style="html=1;verticalAlign=bottom;endArrow=open;dashed=1;endSize=8;" parent="1" edge="1">
                    <mxGeometry relative="1" as="geometry">
                        <mxPoint x="514.3299999999999" y="754" as="sourcePoint"/>
                        <mxPoint x="333.99666666666656" y="754" as="targetPoint"/>
                    </mxGeometry>
                </mxCell>
                <mxCell id="50" value="Notify user of failed sign-in" style="html=1;verticalAlign=bottom;endArrow=open;dashed=1;endSize=8;" parent="1" edge="1">
                    <mxGeometry relative="1" as="geometry">
                        <mxPoint x="334.3299999999999" y="804" as="sourcePoint"/>
                        <mxPoint x="153.99666666666656" y="804" as="targetPoint"/>
                    </mxGeometry>
                </mxCell>
                <mxCell id="51" value="ALT" style="shape=umlFrame;whiteSpace=wrap;html=1;" parent="1" vertex="1">
                    <mxGeometry x="104" y="454" width="640" height="420" as="geometry"/>
                </mxCell>
                <mxCell id="52" value="" style="endArrow=none;dashed=1;html=1;" parent="1" edge="1">
                    <mxGeometry width="50" height="50" relative="1" as="geometry">
                        <mxPoint x="104" y="668.5699999999999" as="sourcePoint"/>
                        <mxPoint x="745.7391304347826" y="668.5699999999999" as="targetPoint"/>
                    </mxGeometry>
                </mxCell>
                <mxCell id="53" value="User exists" style="text;align=center;fontStyle=1;verticalAlign=middle;spacingLeft=3;spacingRight=3;strokeColor=none;rotatable=0;points=[[0,0.5],[1,0.5]];portConstraint=eastwest;" parent="1" vertex="1">
                    <mxGeometry x="164" y="454" width="80" height="26" as="geometry"/>
                </mxCell>
                <mxCell id="54" value="User does not exists" style="text;align=center;fontStyle=1;verticalAlign=middle;spacingLeft=3;spacingRight=3;strokeColor=none;rotatable=0;points=[[0,0.5],[1,0.5]];portConstraint=eastwest;" parent="1" vertex="1">
                    <mxGeometry x="164" y="674" width="120" height="26" as="geometry"/>
                </mxCell>
                <mxCell id="61" value="&amp;lt;&amp;lt;View&amp;gt;&amp;gt;&lt;br&gt;Register" style="shape=umlLifeline;perimeter=lifelinePerimeter;whiteSpace=wrap;html=1;container=1;collapsible=0;recursiveResize=0;outlineConnect=0;" parent="1" vertex="1">
                    <mxGeometry x="1140" y="308" width="100" height="480" as="geometry"/>
                </mxCell>
                <mxCell id="62" value="Successfully signed-up" style="html=1;verticalAlign=bottom;endArrow=open;dashed=1;endSize=8;" parent="61" edge="1">
                    <mxGeometry relative="1" as="geometry">
                        <mxPoint x="50.32999999999993" y="390" as="sourcePoint"/>
                        <mxPoint x="-130.00333333333344" y="390" as="targetPoint"/>
                    </mxGeometry>
                </mxCell>
                <mxCell id="63" value="&amp;lt;&amp;lt;Controller&amp;gt;&amp;gt;&lt;br&gt;Service" style="shape=umlLifeline;perimeter=lifelinePerimeter;whiteSpace=wrap;html=1;container=1;collapsible=0;recursiveResize=0;outlineConnect=0;" parent="1" vertex="1">
                    <mxGeometry x="1320" y="308" width="100" height="480" as="geometry"/>
                </mxCell>
                <mxCell id="64" value="&amp;lt;&amp;lt;Model&amp;gt;&amp;gt;&lt;br&gt;Users" style="shape=umlLifeline;perimeter=lifelinePerimeter;whiteSpace=wrap;html=1;container=1;collapsible=0;recursiveResize=0;outlineConnect=0;" parent="1" vertex="1">
                    <mxGeometry x="1500" y="308" width="100" height="480" as="geometry"/>
                </mxCell>
                <mxCell id="65" value="return created user data&amp;nbsp;" style="html=1;verticalAlign=bottom;endArrow=open;dashed=1;endSize=8;" parent="64" target="63" edge="1">
                    <mxGeometry relative="1" as="geometry">
                        <mxPoint x="50" y="270" as="sourcePoint"/>
                        <mxPoint x="-30" y="270" as="targetPoint"/>
                    </mxGeometry>
                </mxCell>
                <mxCell id="66" value="User" style="shape=umlLifeline;perimeter=lifelinePerimeter;whiteSpace=wrap;html=1;container=1;collapsible=0;recursiveResize=0;outlineConnect=0;" parent="1" vertex="1">
                    <mxGeometry x="960" y="308" width="100" height="480" as="geometry"/>
                </mxCell>
                <mxCell id="67" value="Input email, password,&lt;br&gt;name and phone" style="html=1;verticalAlign=bottom;endArrow=block;" parent="66" target="61" edge="1">
                    <mxGeometry width="80" relative="1" as="geometry">
                        <mxPoint x="50" y="80" as="sourcePoint"/>
                        <mxPoint x="220" y="80" as="targetPoint"/>
                    </mxGeometry>
                </mxCell>
                <mxCell id="68" value="" style="shape=umlActor;verticalLabelPosition=bottom;verticalAlign=top;html=1;outlineConnect=0;" parent="1" vertex="1">
                    <mxGeometry x="994" y="234" width="30" height="60" as="geometry"/>
                </mxCell>
                <mxCell id="69" value="signUp&lt;br&gt;(email, password, userData)" style="html=1;verticalAlign=bottom;endArrow=block;" parent="1" edge="1">
                    <mxGeometry width="80" relative="1" as="geometry">
                        <mxPoint x="1189.630434782609" y="452" as="sourcePoint"/>
                        <mxPoint x="1369.5" y="452" as="targetPoint"/>
                    </mxGeometry>
                </mxCell>
                <mxCell id="70" value="createUserWithEmailAndPassword&lt;br&gt;(email, password)" style="html=1;verticalAlign=bottom;endArrow=block;" parent="1" source="63" edge="1">
                    <mxGeometry width="80" relative="1" as="geometry">
                        <mxPoint x="1369.9992592592594" y="508" as="sourcePoint"/>
                        <mxPoint x="1549.7399999999998" y="508" as="targetPoint"/>
                    </mxGeometry>
                </mxCell>
                <mxCell id="71" value="set signed-in user with&lt;br&gt;Firebase Auth" style="html=1;verticalAlign=bottom;endArrow=open;dashed=1;endSize=8;" parent="1" edge="1">
                    <mxGeometry relative="1" as="geometry">
                        <mxPoint x="1370.33" y="628" as="sourcePoint"/>
                        <mxPoint x="1189.9966666666664" y="628" as="targetPoint"/>
                    </mxGeometry>
                </mxCell>
                <mxCell id="79" value="&amp;lt;&amp;lt;View&amp;gt;&amp;gt;&lt;br&gt;HomePage" style="shape=umlLifeline;perimeter=lifelinePerimeter;whiteSpace=wrap;html=1;container=1;collapsible=0;recursiveResize=0;outlineConnect=0;" parent="1" vertex="1">
                    <mxGeometry x="285" y="1374" width="100" height="480" as="geometry"/>
                </mxCell>
                <mxCell id="80" value="Show preview of n products" style="html=1;verticalAlign=bottom;endArrow=open;dashed=1;endSize=8;" parent="79" edge="1">
                    <mxGeometry relative="1" as="geometry">
                        <mxPoint x="50.32999999999993" y="390" as="sourcePoint"/>
                        <mxPoint x="-130.00333333333344" y="390" as="targetPoint"/>
                    </mxGeometry>
                </mxCell>
                <mxCell id="81" value="&amp;lt;&amp;lt;Controller&amp;gt;&amp;gt;&lt;br&gt;Service" style="shape=umlLifeline;perimeter=lifelinePerimeter;whiteSpace=wrap;html=1;container=1;collapsible=0;recursiveResize=0;outlineConnect=0;" parent="1" vertex="1">
                    <mxGeometry x="465" y="1374" width="100" height="480" as="geometry"/>
                </mxCell>
                <mxCell id="82" value="&amp;lt;&amp;lt;Model&amp;gt;&amp;gt;&lt;br&gt;Products" style="shape=umlLifeline;perimeter=lifelinePerimeter;whiteSpace=wrap;html=1;container=1;collapsible=0;recursiveResize=0;outlineConnect=0;" parent="1" vertex="1">
                    <mxGeometry x="645" y="1374" width="100" height="480" as="geometry"/>
                </mxCell>
                <mxCell id="83" value="return all products" style="html=1;verticalAlign=bottom;endArrow=open;dashed=1;endSize=8;" parent="82" target="81" edge="1">
                    <mxGeometry relative="1" as="geometry">
                        <mxPoint x="50" y="270" as="sourcePoint"/>
                        <mxPoint x="-30" y="270" as="targetPoint"/>
                    </mxGeometry>
                </mxCell>
                <mxCell id="84" value="User" style="shape=umlLifeline;perimeter=lifelinePerimeter;whiteSpace=wrap;html=1;container=1;collapsible=0;recursiveResize=0;outlineConnect=0;" parent="1" vertex="1">
                    <mxGeometry x="105" y="1374" width="100" height="480" as="geometry"/>
                </mxCell>
                <mxCell id="85" value="Visit Home Page" style="html=1;verticalAlign=bottom;endArrow=block;" parent="84" target="79" edge="1">
                    <mxGeometry width="80" relative="1" as="geometry">
                        <mxPoint x="50" y="80" as="sourcePoint"/>
                        <mxPoint x="220" y="80" as="targetPoint"/>
                    </mxGeometry>
                </mxCell>
                <mxCell id="86" value="" style="shape=umlActor;verticalLabelPosition=bottom;verticalAlign=top;html=1;outlineConnect=0;" parent="1" vertex="1">
                    <mxGeometry x="139" y="1300" width="30" height="60" as="geometry"/>
                </mxCell>
                <mxCell id="87" value="getAllProducts().slice(0,n)" style="html=1;verticalAlign=bottom;endArrow=block;" parent="1" edge="1">
                    <mxGeometry width="80" relative="1" as="geometry">
                        <mxPoint x="334.630434782609" y="1518" as="sourcePoint"/>
                        <mxPoint x="514.5" y="1518" as="targetPoint"/>
                    </mxGeometry>
                </mxCell>
                <mxCell id="88" value="db.collection('products').get()" style="html=1;verticalAlign=bottom;endArrow=block;" parent="1" source="81" edge="1">
                    <mxGeometry width="80" relative="1" as="geometry">
                        <mxPoint x="514.9992592592594" y="1574" as="sourcePoint"/>
                        <mxPoint x="694.7399999999998" y="1574" as="targetPoint"/>
                    </mxGeometry>
                </mxCell>
                <mxCell id="89" value="Return first n amount of products" style="html=1;verticalAlign=bottom;endArrow=open;dashed=1;endSize=8;" parent="1" edge="1">
                    <mxGeometry relative="1" as="geometry">
                        <mxPoint x="515.3299999999999" y="1694" as="sourcePoint"/>
                        <mxPoint x="334.99666666666644" y="1694" as="targetPoint"/>
                    </mxGeometry>
                </mxCell>
                <mxCell id="91" value="&amp;lt;&amp;lt;View&amp;gt;&amp;gt;&lt;br&gt;HomePage" style="shape=umlLifeline;perimeter=lifelinePerimeter;whiteSpace=wrap;html=1;container=1;collapsible=0;recursiveResize=0;outlineConnect=0;" parent="1" vertex="1">
                    <mxGeometry x="1043" y="1314" width="100" height="886" as="geometry"/>
                </mxCell>
                <mxCell id="93" value="&amp;lt;&amp;lt;View&amp;gt;&amp;gt;&lt;br&gt;SearchPage" style="shape=umlLifeline;perimeter=lifelinePerimeter;whiteSpace=wrap;html=1;container=1;collapsible=0;recursiveResize=0;outlineConnect=0;" parent="1" vertex="1">
                    <mxGeometry x="1223" y="1314" width="100" height="886" as="geometry"/>
                </mxCell>
                <mxCell id="94" value="&amp;lt;&amp;lt;Controller&amp;gt;&amp;gt;&lt;br&gt;Service" style="shape=umlLifeline;perimeter=lifelinePerimeter;whiteSpace=wrap;html=1;container=1;collapsible=0;recursiveResize=0;outlineConnect=0;" parent="1" vertex="1">
                    <mxGeometry x="1403" y="1314" width="100" height="886" as="geometry"/>
                </mxCell>
                <mxCell id="95" value="return all paginated products" style="html=1;verticalAlign=bottom;endArrow=open;dashed=1;endSize=8;" parent="94" edge="1">
                    <mxGeometry relative="1" as="geometry">
                        <mxPoint x="50" y="339" as="sourcePoint"/>
                        <mxPoint x="-131.03846153846143" y="339" as="targetPoint"/>
                    </mxGeometry>
                </mxCell>
                <mxCell id="111" value="return paginated filtered products&amp;nbsp;" style="html=1;verticalAlign=bottom;endArrow=open;dashed=1;endSize=8;" parent="94" edge="1">
                    <mxGeometry relative="1" as="geometry">
                        <mxPoint x="51.539999999999964" y="756" as="sourcePoint"/>
                        <mxPoint x="-135" y="756" as="targetPoint"/>
                    </mxGeometry>
                </mxCell>
                <mxCell id="96" value="User" style="shape=umlLifeline;perimeter=lifelinePerimeter;whiteSpace=wrap;html=1;container=1;collapsible=0;recursiveResize=0;outlineConnect=0;" parent="1" vertex="1">
                    <mxGeometry x="863" y="1314" width="100" height="876" as="geometry"/>
                </mxCell>
                <mxCell id="97" value="Click &quot;Explore More&quot;" style="html=1;verticalAlign=bottom;endArrow=block;" parent="96" target="91" edge="1">
                    <mxGeometry width="80" relative="1" as="geometry">
                        <mxPoint x="50" y="80" as="sourcePoint"/>
                        <mxPoint x="220" y="80" as="targetPoint"/>
                    </mxGeometry>
                </mxCell>
                <mxCell id="98" value="" style="shape=umlActor;verticalLabelPosition=bottom;verticalAlign=top;html=1;outlineConnect=0;" parent="1" vertex="1">
                    <mxGeometry x="897" y="1240" width="30" height="60" as="geometry"/>
                </mxCell>
                <mxCell id="99" value="View Seach Page" style="html=1;verticalAlign=bottom;endArrow=block;" parent="1" edge="1">
                    <mxGeometry width="80" relative="1" as="geometry">
                        <mxPoint x="1092.630434782609" y="1458" as="sourcePoint"/>
                        <mxPoint x="1272.5" y="1458" as="targetPoint"/>
                    </mxGeometry>
                </mxCell>
                <mxCell id="100" value="getAllProductsPaginated()" style="html=1;verticalAlign=bottom;endArrow=block;" parent="1" source="93" edge="1">
                    <mxGeometry width="80" relative="1" as="geometry">
                        <mxPoint x="1272.9992592592594" y="1514" as="sourcePoint"/>
                        <mxPoint x="1452.7399999999998" y="1514" as="targetPoint"/>
                    </mxGeometry>
                </mxCell>
                <mxCell id="101" value="Show list of products sold in Search Page" style="html=1;verticalAlign=bottom;endArrow=open;dashed=1;endSize=8;" parent="1" target="96" edge="1">
                    <mxGeometry relative="1" as="geometry">
                        <mxPoint x="1273.33" y="1703" as="sourcePoint"/>
                        <mxPoint x="1092.9966666666664" y="1703" as="targetPoint"/>
                    </mxGeometry>
                </mxCell>
                <mxCell id="102" value="&amp;lt;&amp;lt;Model&amp;gt;&amp;gt;&lt;br&gt;Products" style="shape=umlLifeline;perimeter=lifelinePerimeter;whiteSpace=wrap;html=1;container=1;collapsible=0;recursiveResize=0;outlineConnect=0;" parent="1" vertex="1">
                    <mxGeometry x="1588" y="1310" width="100" height="890" as="geometry"/>
                </mxCell>
                <mxCell id="104" value="db.collection('products').get()" style="html=1;verticalAlign=bottom;endArrow=block;" parent="1" target="102" edge="1">
                    <mxGeometry width="80" relative="1" as="geometry">
                        <mxPoint x="1452.9988888888888" y="1560" as="sourcePoint"/>
                        <mxPoint x="1633.35" y="1560" as="targetPoint"/>
                    </mxGeometry>
                </mxCell>
                <mxCell id="105" value="return all products" style="html=1;verticalAlign=bottom;endArrow=open;dashed=1;endSize=8;" parent="1" target="94" edge="1">
                    <mxGeometry relative="1" as="geometry">
                        <mxPoint x="1639.04" y="1610" as="sourcePoint"/>
                        <mxPoint x="1458.0015384615383" y="1610" as="targetPoint"/>
                    </mxGeometry>
                </mxCell>
                <mxCell id="106" value="Click &quot;Explore More&quot;" style="html=1;verticalAlign=bottom;endArrow=block;" parent="1" edge="1">
                    <mxGeometry width="80" relative="1" as="geometry">
                        <mxPoint x="910.75" y="1760" as="sourcePoint"/>
                        <mxPoint x="1090.25" y="1760" as="targetPoint"/>
                    </mxGeometry>
                </mxCell>
                <mxCell id="107" value="Input search query in&lt;br&gt;search bar" style="html=1;verticalAlign=bottom;endArrow=block;" parent="1" edge="1">
                    <mxGeometry width="80" relative="1" as="geometry">
                        <mxPoint x="1090.380434782609" y="1824" as="sourcePoint"/>
                        <mxPoint x="1270.25" y="1824" as="targetPoint"/>
                    </mxGeometry>
                </mxCell>
                <mxCell id="108" value="getProducts ByTitlePaginated&lt;br&gt;(searchString)" style="html=1;verticalAlign=bottom;endArrow=block;" parent="1" edge="1">
                    <mxGeometry width="80" relative="1" as="geometry">
                        <mxPoint x="1270" y="1880" as="sourcePoint"/>
                        <mxPoint x="1450.4899999999998" y="1880" as="targetPoint"/>
                    </mxGeometry>
                </mxCell>
                <mxCell id="109" value="getAllProducts().filter&lt;br&gt;(searchString in title)" style="html=1;verticalAlign=bottom;endArrow=block;" parent="1" edge="1">
                    <mxGeometry width="80" relative="1" as="geometry">
                        <mxPoint x="1451" y="1926" as="sourcePoint"/>
                        <mxPoint x="1635.25" y="1926" as="targetPoint"/>
                    </mxGeometry>
                </mxCell>
                <mxCell id="110" value="return all products with&lt;br&gt;searchString in the title" style="html=1;verticalAlign=bottom;endArrow=open;dashed=1;endSize=8;" parent="1" edge="1">
                    <mxGeometry relative="1" as="geometry">
                        <mxPoint x="1634.54" y="2000" as="sourcePoint"/>
                        <mxPoint x="1448" y="2000" as="targetPoint"/>
                    </mxGeometry>
                </mxCell>
                <mxCell id="112" value="Show list of products based on search query" style="html=1;verticalAlign=bottom;endArrow=open;dashed=1;endSize=8;" parent="1" target="96" edge="1">
                    <mxGeometry relative="1" as="geometry">
                        <mxPoint x="1276.27" y="2150.000000000001" as="sourcePoint"/>
                        <mxPoint x="1089.73" y="2150.000000000001" as="targetPoint"/>
                    </mxGeometry>
                </mxCell>
                <mxCell id="144" value="&amp;lt;&amp;lt;View&amp;gt;&amp;gt;&lt;br&gt;HomePage" style="shape=umlLifeline;perimeter=lifelinePerimeter;whiteSpace=wrap;html=1;container=1;collapsible=0;recursiveResize=0;outlineConnect=0;" parent="1" vertex="1">
                    <mxGeometry x="191.5" y="2454" width="100" height="686" as="geometry"/>
                </mxCell>
                <mxCell id="145" value="&amp;lt;&amp;lt;View&amp;gt;&amp;gt;&lt;br&gt;SearchPage" style="shape=umlLifeline;perimeter=lifelinePerimeter;whiteSpace=wrap;html=1;container=1;collapsible=0;recursiveResize=0;outlineConnect=0;" parent="1" vertex="1">
                    <mxGeometry x="371.5" y="2454" width="100" height="686" as="geometry"/>
                </mxCell>
                <mxCell id="146" value="&amp;lt;&amp;lt;Controller&amp;gt;&amp;gt;&lt;br&gt;Service" style="shape=umlLifeline;perimeter=lifelinePerimeter;whiteSpace=wrap;html=1;container=1;collapsible=0;recursiveResize=0;outlineConnect=0;" parent="1" vertex="1">
                    <mxGeometry x="551.5" y="2454" width="100" height="686" as="geometry"/>
                </mxCell>
                <mxCell id="159" value="Input result as search query in&lt;br&gt;search bar" style="html=1;verticalAlign=bottom;endArrow=block;" parent="146" edge="1">
                    <mxGeometry width="80" relative="1" as="geometry">
                        <mxPoint x="-312.619565217391" y="286" as="sourcePoint"/>
                        <mxPoint x="-132.75" y="286" as="targetPoint"/>
                    </mxGeometry>
                </mxCell>
                <mxCell id="160" value="getProducts ByTitlePaginated&lt;br&gt;(searchString)" style="html=1;verticalAlign=bottom;endArrow=block;" parent="146" edge="1">
                    <mxGeometry width="80" relative="1" as="geometry">
                        <mxPoint x="-132.5" y="342" as="sourcePoint"/>
                        <mxPoint x="47.48999999999978" y="342.0000000000009" as="targetPoint"/>
                    </mxGeometry>
                </mxCell>
                <mxCell id="161" value="getAllProducts().filter&lt;br&gt;(searchString in title)" style="html=1;verticalAlign=bottom;endArrow=block;" parent="146" edge="1">
                    <mxGeometry width="80" relative="1" as="geometry">
                        <mxPoint x="48" y="388" as="sourcePoint"/>
                        <mxPoint x="232.25" y="388" as="targetPoint"/>
                    </mxGeometry>
                </mxCell>
                <mxCell id="162" value="return all products with&lt;br&gt;searchString in the title" style="html=1;verticalAlign=bottom;endArrow=open;dashed=1;endSize=8;" parent="146" edge="1">
                    <mxGeometry relative="1" as="geometry">
                        <mxPoint x="231.53999999999996" y="462.0000000000009" as="sourcePoint"/>
                        <mxPoint x="45" y="462.0000000000009" as="targetPoint"/>
                    </mxGeometry>
                </mxCell>
                <mxCell id="163" value="Show list of products based on search query" style="html=1;verticalAlign=bottom;endArrow=open;dashed=1;endSize=8;" parent="146" edge="1">
                    <mxGeometry relative="1" as="geometry">
                        <mxPoint x="-126.73000000000002" y="612.0000000000009" as="sourcePoint"/>
                        <mxPoint x="-490.4523809523811" y="612.0000000000009" as="targetPoint"/>
                    </mxGeometry>
                </mxCell>
                <mxCell id="149" value="User" style="shape=umlLifeline;perimeter=lifelinePerimeter;whiteSpace=wrap;html=1;container=1;collapsible=0;recursiveResize=0;outlineConnect=0;" parent="1" vertex="1">
                    <mxGeometry x="11.5" y="2454" width="100" height="686" as="geometry"/>
                </mxCell>
                <mxCell id="150" value="Input values in wheel calculator" style="html=1;verticalAlign=bottom;endArrow=block;" parent="149" target="144" edge="1">
                    <mxGeometry width="80" relative="1" as="geometry">
                        <mxPoint x="50" y="80" as="sourcePoint"/>
                        <mxPoint x="220" y="80" as="targetPoint"/>
                    </mxGeometry>
                </mxCell>
                <mxCell id="151" value="" style="shape=umlActor;verticalLabelPosition=bottom;verticalAlign=top;html=1;outlineConnect=0;" parent="1" vertex="1">
                    <mxGeometry x="45.5" y="2380" width="30" height="60" as="geometry"/>
                </mxCell>
                <mxCell id="155" value="&amp;lt;&amp;lt;Model&amp;gt;&amp;gt;&lt;br&gt;Products" style="shape=umlLifeline;perimeter=lifelinePerimeter;whiteSpace=wrap;html=1;container=1;collapsible=0;recursiveResize=0;outlineConnect=0;" parent="1" vertex="1">
                    <mxGeometry x="736.5" y="2454" width="100" height="690" as="geometry"/>
                </mxCell>
                <mxCell id="164" value="return calculation result and&lt;br&gt;recommend wheel size" style="html=1;verticalAlign=bottom;endArrow=open;dashed=1;endSize=8;" parent="1" source="144" edge="1">
                    <mxGeometry relative="1" as="geometry">
                        <mxPoint x="230" y="2600" as="sourcePoint"/>
                        <mxPoint x="57" y="2600" as="targetPoint"/>
                    </mxGeometry>
                </mxCell>
                <mxCell id="165" value="Click search recommended&lt;br&gt;wheel based on result" style="html=1;verticalAlign=bottom;endArrow=block;" parent="1" target="144" edge="1">
                    <mxGeometry width="80" relative="1" as="geometry">
                        <mxPoint x="60" y="2670" as="sourcePoint"/>
                        <mxPoint x="242.75" y="2670" as="targetPoint"/>
                    </mxGeometry>
                </mxCell>
                <mxCell id="148" value="return paginated filtered products&amp;nbsp;" style="html=1;verticalAlign=bottom;endArrow=open;dashed=1;endSize=8;" parent="1" edge="1">
                    <mxGeometry relative="1" as="geometry">
                        <mxPoint x="603.04" y="2980" as="sourcePoint"/>
                        <mxPoint x="420" y="2980" as="targetPoint"/>
                    </mxGeometry>
                </mxCell>
                <mxCell id="166" value="1. Login" style="text;align=center;fontStyle=1;verticalAlign=middle;spacingLeft=3;spacingRight=3;strokeColor=none;rotatable=0;points=[[0,0.5],[1,0.5]];portConstraint=eastwest;fontSize=36;" parent="1" vertex="1">
                    <mxGeometry x="75.5" y="40" width="80" height="26" as="geometry"/>
                </mxCell>
                <mxCell id="167" value="3. Explore Products" style="text;align=left;fontStyle=1;verticalAlign=middle;spacingLeft=3;spacingRight=3;strokeColor=none;rotatable=0;points=[[0,0.5],[1,0.5]];portConstraint=eastwest;fontSize=36;" parent="1" vertex="1">
                    <mxGeometry x="40" y="1154" width="80" height="26" as="geometry"/>
                </mxCell>
                <mxCell id="170" value="2. Register" style="text;align=left;fontStyle=1;verticalAlign=middle;spacingLeft=3;spacingRight=3;strokeColor=none;rotatable=0;points=[[0,0.5],[1,0.5]];portConstraint=eastwest;fontSize=36;" parent="1" vertex="1">
                    <mxGeometry x="880" y="40" width="80" height="26" as="geometry"/>
                </mxCell>
                <mxCell id="173" value="4. Search Product" style="text;align=left;fontStyle=1;verticalAlign=middle;spacingLeft=3;spacingRight=3;strokeColor=none;rotatable=0;points=[[0,0.5],[1,0.5]];portConstraint=eastwest;fontSize=36;" parent="1" vertex="1">
                    <mxGeometry x="883" y="1160" width="80" height="26" as="geometry"/>
                </mxCell>
                <mxCell id="174" value="5. Wheel Calculator" style="text;align=left;fontStyle=1;verticalAlign=middle;spacingLeft=3;spacingRight=3;strokeColor=none;rotatable=0;points=[[0,0.5],[1,0.5]];portConstraint=eastwest;fontSize=36;" parent="1" vertex="1">
                    <mxGeometry x="40" y="2250" width="80" height="26" as="geometry"/>
                </mxCell>
                <mxCell id="175" value="Seller" style="shape=umlLifeline;perimeter=lifelinePerimeter;whiteSpace=wrap;html=1;container=1;collapsible=0;recursiveResize=0;outlineConnect=0;" parent="1" vertex="1">
                    <mxGeometry x="1043" y="2384" width="97" height="1016" as="geometry"/>
                </mxCell>
                <mxCell id="176" value="&amp;lt;&amp;lt;View&amp;gt;&amp;gt;&lt;br&gt;SearchPage" style="shape=umlLifeline;perimeter=lifelinePerimeter;whiteSpace=wrap;html=1;container=1;collapsible=0;recursiveResize=0;outlineConnect=0;" parent="1" vertex="1">
                    <mxGeometry x="1223" y="2384" width="100" height="1016" as="geometry"/>
                </mxCell>
                <mxCell id="207" value="Preview chat" style="html=1;verticalAlign=bottom;endArrow=block;" parent="176" source="175" edge="1">
                    <mxGeometry width="80" relative="1" as="geometry">
                        <mxPoint x="-93" y="886" as="sourcePoint"/>
                        <mxPoint x="229.25" y="886" as="targetPoint"/>
                    </mxGeometry>
                </mxCell>
                <mxCell id="208" value="getChatsByUserId(userId)" style="html=1;verticalAlign=bottom;endArrow=block;" parent="176" edge="1">
                    <mxGeometry width="80" relative="1" as="geometry">
                        <mxPoint x="226.75" y="916" as="sourcePoint"/>
                        <mxPoint x="414.25" y="916" as="targetPoint"/>
                    </mxGeometry>
                </mxCell>
                <mxCell id="209" value="return chat successfully sent" style="html=1;verticalAlign=bottom;endArrow=open;dashed=1;endSize=8;" parent="176" edge="1">
                    <mxGeometry relative="1" as="geometry">
                        <mxPoint x="413.28999999999996" y="968.460000000001" as="sourcePoint"/>
                        <mxPoint x="226.75" y="968.460000000001" as="targetPoint"/>
                    </mxGeometry>
                </mxCell>
                <mxCell id="177" value="&amp;lt;&amp;lt;View&amp;gt;&amp;gt;&lt;br&gt;ChatPage" style="shape=umlLifeline;perimeter=lifelinePerimeter;whiteSpace=wrap;html=1;container=1;collapsible=0;recursiveResize=0;outlineConnect=0;" parent="1" vertex="1">
                    <mxGeometry x="1403" y="2384" width="100" height="1016" as="geometry"/>
                </mxCell>
                <mxCell id="192" value="Redirect to Chat Page&lt;br&gt;with sellerId" style="html=1;verticalAlign=bottom;endArrow=block;" parent="177" source="176" edge="1">
                    <mxGeometry width="80" relative="1" as="geometry">
                        <mxPoint x="-127.99956521739114" y="136" as="sourcePoint"/>
                        <mxPoint x="51.86999999999989" y="136" as="targetPoint"/>
                    </mxGeometry>
                </mxCell>
                <mxCell id="189" value="Message successfully sent!" style="html=1;verticalAlign=bottom;endArrow=open;dashed=1;endSize=8;" parent="177" target="183" edge="1">
                    <mxGeometry relative="1" as="geometry">
                        <mxPoint x="51.539999999999964" y="566" as="sourcePoint"/>
                        <mxPoint x="-131.5" y="566" as="targetPoint"/>
                    </mxGeometry>
                </mxCell>
                <mxCell id="202" value="show all chats, grouped by senders and ordered time" style="html=1;verticalAlign=bottom;endArrow=open;dashed=1;endSize=8;" parent="177" target="183" edge="1">
                    <mxGeometry relative="1" as="geometry">
                        <mxPoint x="47" y="796" as="sourcePoint"/>
                        <mxPoint x="-133" y="796.0000000000009" as="targetPoint"/>
                    </mxGeometry>
                </mxCell>
                <mxCell id="183" value="Customer" style="shape=umlLifeline;perimeter=lifelinePerimeter;whiteSpace=wrap;html=1;container=1;collapsible=0;recursiveResize=0;outlineConnect=0;" parent="1" vertex="1">
                    <mxGeometry x="863" y="2384" width="100" height="1016" as="geometry"/>
                </mxCell>
                <mxCell id="184" value="Click chat button on desired&lt;br&gt;product" style="html=1;verticalAlign=bottom;endArrow=block;" parent="183" target="176" edge="1">
                    <mxGeometry width="80" relative="1" as="geometry">
                        <mxPoint x="50" y="80" as="sourcePoint"/>
                        <mxPoint x="220" y="80" as="targetPoint"/>
                    </mxGeometry>
                </mxCell>
                <mxCell id="185" value="" style="shape=umlActor;verticalLabelPosition=bottom;verticalAlign=top;html=1;outlineConnect=0;" parent="1" vertex="1">
                    <mxGeometry x="897" y="2310" width="30" height="60" as="geometry"/>
                </mxCell>
                <mxCell id="186" value="&amp;lt;&amp;lt;Model&amp;gt;&amp;gt;&lt;br&gt;Chat" style="shape=umlLifeline;perimeter=lifelinePerimeter;whiteSpace=wrap;html=1;container=1;collapsible=0;recursiveResize=0;outlineConnect=0;" parent="1" vertex="1">
                    <mxGeometry x="1588" y="2384" width="100" height="1016" as="geometry"/>
                </mxCell>
                <mxCell id="194" value="sendChat&lt;br&gt;(customerId, sellerId, itemId,&lt;br&gt;message, time)" style="html=1;verticalAlign=bottom;endArrow=block;" parent="186" source="177" edge="1">
                    <mxGeometry width="80" relative="1" as="geometry">
                        <mxPoint x="-129.30999999999995" y="186" as="sourcePoint"/>
                        <mxPoint x="53.309999999999945" y="186" as="targetPoint"/>
                    </mxGeometry>
                </mxCell>
                <mxCell id="195" value="return chat successfully sent" style="html=1;verticalAlign=bottom;endArrow=open;dashed=1;endSize=8;" parent="186" edge="1">
                    <mxGeometry relative="1" as="geometry">
                        <mxPoint x="48.539999999999964" y="246.0000000000009" as="sourcePoint"/>
                        <mxPoint x="-138" y="246.0000000000009" as="targetPoint"/>
                    </mxGeometry>
                </mxCell>
                <mxCell id="198" value="sendChat&lt;br&gt;(customerId, sellerId, itemId,&lt;br&gt;message, time)" style="html=1;verticalAlign=bottom;endArrow=block;" parent="186" source="177" edge="1">
                    <mxGeometry width="80" relative="1" as="geometry">
                        <mxPoint x="-128" y="426" as="sourcePoint"/>
                        <mxPoint x="48.75000000000023" y="426" as="targetPoint"/>
                    </mxGeometry>
                </mxCell>
                <mxCell id="190" value="6. Chat with Seller" style="text;align=left;fontStyle=1;verticalAlign=middle;spacingLeft=3;spacingRight=3;strokeColor=none;rotatable=0;points=[[0,0.5],[1,0.5]];portConstraint=eastwest;fontSize=36;" parent="1" vertex="1">
                    <mxGeometry x="891.5" y="2250" width="80" height="26" as="geometry"/>
                </mxCell>
                <mxCell id="191" value="" style="shape=umlActor;verticalLabelPosition=bottom;verticalAlign=top;html=1;outlineConnect=0;" parent="1" vertex="1">
                    <mxGeometry x="1078" y="2310" width="30" height="60" as="geometry"/>
                </mxCell>
                <mxCell id="196" value="Message successfully sent" style="html=1;verticalAlign=bottom;endArrow=open;dashed=1;endSize=8;" parent="1" target="183" edge="1">
                    <mxGeometry relative="1" as="geometry">
                        <mxPoint x="1457" y="2690" as="sourcePoint"/>
                        <mxPoint x="1270" y="2690.000000000001" as="targetPoint"/>
                    </mxGeometry>
                </mxCell>
                <mxCell id="197" value="Reply chat from customers" style="html=1;verticalAlign=bottom;endArrow=block;" parent="1" target="177" edge="1">
                    <mxGeometry width="80" relative="1" as="geometry">
                        <mxPoint x="1093.25" y="2770" as="sourcePoint"/>
                        <mxPoint x="1270" y="2770" as="targetPoint"/>
                    </mxGeometry>
                </mxCell>
                <mxCell id="181" value="return chat successfully sent" style="html=1;verticalAlign=bottom;endArrow=open;dashed=1;endSize=8;" parent="1" edge="1">
                    <mxGeometry relative="1" as="geometry">
                        <mxPoint x="1634.54" y="2890.000000000001" as="sourcePoint"/>
                        <mxPoint x="1448" y="2890.000000000001" as="targetPoint"/>
                    </mxGeometry>
                </mxCell>
                <mxCell id="199" value="Preview chat" style="html=1;verticalAlign=bottom;endArrow=block;" parent="1" target="177" edge="1">
                    <mxGeometry width="80" relative="1" as="geometry">
                        <mxPoint x="913.25" y="3060" as="sourcePoint"/>
                        <mxPoint x="1272.75" y="3060" as="targetPoint"/>
                    </mxGeometry>
                </mxCell>
                <mxCell id="200" value="getChatsByUserId(userId)" style="html=1;verticalAlign=bottom;endArrow=block;" parent="1" target="186" edge="1">
                    <mxGeometry width="80" relative="1" as="geometry">
                        <mxPoint x="1450" y="3090" as="sourcePoint"/>
                        <mxPoint x="1809.5" y="3090" as="targetPoint"/>
                    </mxGeometry>
                </mxCell>
                <mxCell id="201" value="return chat successfully sent" style="html=1;verticalAlign=bottom;endArrow=open;dashed=1;endSize=8;" parent="1" edge="1">
                    <mxGeometry relative="1" as="geometry">
                        <mxPoint x="1636.54" y="3142.460000000001" as="sourcePoint"/>
                        <mxPoint x="1450" y="3142.460000000001" as="targetPoint"/>
                    </mxGeometry>
                </mxCell>
                <mxCell id="210" value="show all chats, grouped by senders and ordered time" style="html=1;verticalAlign=bottom;endArrow=open;dashed=1;endSize=8;" parent="1" target="175" edge="1">
                    <mxGeometry relative="1" as="geometry">
                        <mxPoint x="1453" y="3399" as="sourcePoint"/>
                        <mxPoint x="921.1200000000002" y="3398.75" as="targetPoint"/>
                    </mxGeometry>
                </mxCell>
                <mxCell id="225" value="&amp;lt;&amp;lt;View&amp;gt;&amp;gt;&lt;br&gt;ProductManagerPage" style="shape=umlLifeline;perimeter=lifelinePerimeter;whiteSpace=wrap;html=1;container=1;collapsible=0;recursiveResize=0;outlineConnect=0;" parent="1" vertex="1">
                    <mxGeometry x="290" y="3628" width="140" height="480" as="geometry"/>
                </mxCell>
                <mxCell id="226" value="Successfully create new product&amp;nbsp;" style="html=1;verticalAlign=bottom;endArrow=open;dashed=1;endSize=8;" parent="225" edge="1">
                    <mxGeometry relative="1" as="geometry">
                        <mxPoint x="69.99999999999993" y="390" as="sourcePoint"/>
                        <mxPoint x="-110.33333333333344" y="390" as="targetPoint"/>
                    </mxGeometry>
                </mxCell>
                <mxCell id="227" value="&amp;lt;&amp;lt;Controller&amp;gt;&amp;gt;&lt;br&gt;Service" style="shape=umlLifeline;perimeter=lifelinePerimeter;whiteSpace=wrap;html=1;container=1;collapsible=0;recursiveResize=0;outlineConnect=0;" parent="1" vertex="1">
                    <mxGeometry x="490" y="3628" width="100" height="480" as="geometry"/>
                </mxCell>
                <mxCell id="228" value="&amp;lt;&amp;lt;Model&amp;gt;&amp;gt;&lt;br&gt;Users" style="shape=umlLifeline;perimeter=lifelinePerimeter;whiteSpace=wrap;html=1;container=1;collapsible=0;recursiveResize=0;outlineConnect=0;" parent="1" vertex="1">
                    <mxGeometry x="670" y="3628" width="100" height="480" as="geometry"/>
                </mxCell>
                <mxCell id="229" value="return created product&amp;nbsp;" style="html=1;verticalAlign=bottom;endArrow=open;dashed=1;endSize=8;" parent="228" target="227" edge="1">
                    <mxGeometry relative="1" as="geometry">
                        <mxPoint x="50" y="270" as="sourcePoint"/>
                        <mxPoint x="-30" y="270" as="targetPoint"/>
                    </mxGeometry>
                </mxCell>
                <mxCell id="230" value="User" style="shape=umlLifeline;perimeter=lifelinePerimeter;whiteSpace=wrap;html=1;container=1;collapsible=0;recursiveResize=0;outlineConnect=0;" parent="1" vertex="1">
                    <mxGeometry x="130" y="3628" width="100" height="480" as="geometry"/>
                </mxCell>
                <mxCell id="231" value="Click &quot;Add Product&quot;" style="html=1;verticalAlign=bottom;endArrow=block;" parent="230" target="225" edge="1">
                    <mxGeometry width="80" relative="1" as="geometry">
                        <mxPoint x="50" y="80" as="sourcePoint"/>
                        <mxPoint x="220" y="80" as="targetPoint"/>
                    </mxGeometry>
                </mxCell>
                <mxCell id="232" value="" style="shape=umlActor;verticalLabelPosition=bottom;verticalAlign=top;html=1;outlineConnect=0;" parent="1" vertex="1">
                    <mxGeometry x="164" y="3554" width="30" height="60" as="geometry"/>
                </mxCell>
                <mxCell id="233" value="createProduct(productData, image)" style="html=1;verticalAlign=bottom;endArrow=block;" parent="1" edge="1">
                    <mxGeometry width="80" relative="1" as="geometry">
                        <mxPoint x="359.630434782609" y="3772" as="sourcePoint"/>
                        <mxPoint x="539.5" y="3772" as="targetPoint"/>
                    </mxGeometry>
                </mxCell>
                <mxCell id="234" value="db.collection('products').add()" style="html=1;verticalAlign=bottom;endArrow=block;" parent="1" source="227" edge="1">
                    <mxGeometry width="80" relative="1" as="geometry">
                        <mxPoint x="539.9992592592594" y="3828" as="sourcePoint"/>
                        <mxPoint x="719.7399999999998" y="3828" as="targetPoint"/>
                    </mxGeometry>
                </mxCell>
                <mxCell id="235" value="return created product" style="html=1;verticalAlign=bottom;endArrow=open;dashed=1;endSize=8;" parent="1" edge="1">
                    <mxGeometry relative="1" as="geometry">
                        <mxPoint x="540.3299999999999" y="3948" as="sourcePoint"/>
                        <mxPoint x="359.996666666666" y="3948" as="targetPoint"/>
                    </mxGeometry>
                </mxCell>
                <mxCell id="237" value="7. Create Product" style="text;align=left;fontStyle=1;verticalAlign=middle;spacingLeft=3;spacingRight=3;strokeColor=none;rotatable=0;points=[[0,0.5],[1,0.5]];portConstraint=eastwest;fontSize=36;" parent="1" vertex="1">
                    <mxGeometry x="50" y="3360" width="80" height="26" as="geometry"/>
                </mxCell>
                <mxCell id="238" value="&amp;lt;&amp;lt;View&amp;gt;&amp;gt;&lt;br&gt;ProductManagerPage" style="shape=umlLifeline;perimeter=lifelinePerimeter;whiteSpace=wrap;html=1;container=1;collapsible=0;recursiveResize=0;outlineConnect=0;" parent="1" vertex="1">
                    <mxGeometry x="285.5" y="4718" width="140" height="480" as="geometry"/>
                </mxCell>
                <mxCell id="239" value="Successfully deleted product&amp;nbsp;" style="html=1;verticalAlign=bottom;endArrow=open;dashed=1;endSize=8;" parent="238" edge="1">
                    <mxGeometry relative="1" as="geometry">
                        <mxPoint x="69.99999999999993" y="390" as="sourcePoint"/>
                        <mxPoint x="-110.33333333333344" y="390" as="targetPoint"/>
                    </mxGeometry>
                </mxCell>
                <mxCell id="240" value="&amp;lt;&amp;lt;Controller&amp;gt;&amp;gt;&lt;br&gt;Service" style="shape=umlLifeline;perimeter=lifelinePerimeter;whiteSpace=wrap;html=1;container=1;collapsible=0;recursiveResize=0;outlineConnect=0;" parent="1" vertex="1">
                    <mxGeometry x="485.5" y="4718" width="100" height="480" as="geometry"/>
                </mxCell>
                <mxCell id="241" value="&amp;lt;&amp;lt;Model&amp;gt;&amp;gt;&lt;br&gt;Users" style="shape=umlLifeline;perimeter=lifelinePerimeter;whiteSpace=wrap;html=1;container=1;collapsible=0;recursiveResize=0;outlineConnect=0;" parent="1" vertex="1">
                    <mxGeometry x="665.5" y="4718" width="100" height="480" as="geometry"/>
                </mxCell>
                <mxCell id="242" value="return deleted product&amp;nbsp;" style="html=1;verticalAlign=bottom;endArrow=open;dashed=1;endSize=8;" parent="241" target="240" edge="1">
                    <mxGeometry relative="1" as="geometry">
                        <mxPoint x="50" y="270" as="sourcePoint"/>
                        <mxPoint x="-30" y="270" as="targetPoint"/>
                    </mxGeometry>
                </mxCell>
                <mxCell id="243" value="User" style="shape=umlLifeline;perimeter=lifelinePerimeter;whiteSpace=wrap;html=1;container=1;collapsible=0;recursiveResize=0;outlineConnect=0;" parent="1" vertex="1">
                    <mxGeometry x="125.5" y="4718" width="100" height="480" as="geometry"/>
                </mxCell>
                <mxCell id="244" value="Almost clicked delete button" style="html=1;verticalAlign=bottom;endArrow=block;" parent="243" target="238" edge="1">
                    <mxGeometry width="80" relative="1" as="geometry">
                        <mxPoint x="50" y="80" as="sourcePoint"/>
                        <mxPoint x="220" y="80" as="targetPoint"/>
                    </mxGeometry>
                </mxCell>
                <mxCell id="245" value="" style="shape=umlActor;verticalLabelPosition=bottom;verticalAlign=top;html=1;outlineConnect=0;" parent="1" vertex="1">
                    <mxGeometry x="159.5" y="4644" width="30" height="60" as="geometry"/>
                </mxCell>
                <mxCell id="246" value="deleteProductById(productId)" style="html=1;verticalAlign=bottom;endArrow=block;" parent="1" edge="1">
                    <mxGeometry width="80" relative="1" as="geometry">
                        <mxPoint x="355.130434782609" y="4862" as="sourcePoint"/>
                        <mxPoint x="535" y="4862" as="targetPoint"/>
                    </mxGeometry>
                </mxCell>
                <mxCell id="247" value="db.collection('products').delete()" style="html=1;verticalAlign=bottom;endArrow=block;" parent="1" source="240" edge="1">
                    <mxGeometry width="80" relative="1" as="geometry">
                        <mxPoint x="535.4992592592594" y="4918" as="sourcePoint"/>
                        <mxPoint x="715.2399999999998" y="4918" as="targetPoint"/>
                    </mxGeometry>
                </mxCell>
                <mxCell id="248" value="return deleted product" style="html=1;verticalAlign=bottom;endArrow=open;dashed=1;endSize=8;" parent="1" edge="1">
                    <mxGeometry relative="1" as="geometry">
                        <mxPoint x="535.8299999999999" y="5038" as="sourcePoint"/>
                        <mxPoint x="355.496666666666" y="5038" as="targetPoint"/>
                    </mxGeometry>
                </mxCell>
                <mxCell id="249" value="8. Delete Product" style="text;align=left;fontStyle=1;verticalAlign=middle;spacingLeft=3;spacingRight=3;strokeColor=none;rotatable=0;points=[[0,0.5],[1,0.5]];portConstraint=eastwest;fontSize=36;" parent="1" vertex="1">
                    <mxGeometry x="45.5" y="4450" width="80" height="26" as="geometry"/>
                </mxCell>
            </root>
        </mxGraphModel>
    </diagram>
</mxfile>